<svg width="266" height="110" viewBox="0 0 266 110" fill="none" xmlns="http://www.w3.org/2000/svg">
<path d="M7.61133 38V37.0918C9.4668 37.0527 10.834 36.916 11.7129 36.6816C12.5918 36.4473 13.1582 36.0371 13.4121 35.4512C13.666 34.8457 13.793 34.0059 13.793 32.9316V8.79102C13.793 7.73633 13.666 6.91602 13.4121 6.33008C13.1582 5.74414 12.5918 5.32422 11.7129 5.07031C10.834 4.81641 9.4668 4.66992 7.61133 4.63086V3.75195C8.62695 3.75195 9.83789 3.76172 11.2441 3.78125C12.6504 3.80078 14.3105 3.81055 16.2246 3.81055C17.9629 3.81055 19.6328 3.80078 21.2344 3.78125C22.8359 3.76172 24.1348 3.75195 25.1309 3.75195C32.7676 3.75195 38.4512 5.1582 42.1816 7.9707C45.9121 10.7637 47.7773 14.8457 47.7773 20.2168C47.7773 26.0957 45.7656 30.5293 41.7422 33.5176C37.7188 36.5059 32.0938 38 24.8672 38C23.8516 38 22.6406 37.9805 21.2344 37.9414C19.8281 37.8828 18.1973 37.8535 16.3418 37.8535C14.3691 37.8535 12.5527 37.873 10.8926 37.9121C9.23242 37.9512 8.13867 37.9805 7.61133 38ZM23.8711 37.1211C30.5898 37.1211 35.4434 35.793 38.4316 33.1367C41.4395 30.4805 42.9434 26.3496 42.9434 20.7441C42.9434 15.0996 41.4199 11.0078 38.373 8.46875C35.3457 5.91016 30.5312 4.63086 23.9297 4.63086H18.334V33.0488C18.334 34.2402 18.4609 35.1289 18.7148 35.7148C18.9883 36.2812 19.5156 36.6621 20.2969 36.8574C21.0977 37.0332 22.2891 37.1211 23.8711 37.1211ZM60.5508 38.6738C58.5977 38.6738 57.0352 38.1074 55.8633 36.9746C54.7109 35.8418 54.1348 34.1816 54.1348 31.9941C54.1348 30.4316 54.4277 29.1914 55.0137 28.2734C55.6191 27.3555 56.4004 26.6523 57.3574 26.1641C58.3145 25.6562 59.3398 25.2656 60.4336 24.9922C61.5273 24.6992 62.582 24.4258 63.5977 24.1719C64.6133 23.8984 65.4629 23.5371 66.1465 23.0879C66.8496 22.6191 67.2793 21.9551 67.4355 21.0957C67.2988 18.7324 66.8789 16.8965 66.1758 15.5879C65.4922 14.2793 64.5059 13.625 63.2168 13.625C61.9668 13.625 60.873 13.8203 59.9355 14.2109C59.0176 14.582 58.5586 15.0898 58.5586 15.7344C58.5586 16.3398 58.7734 17.0039 59.2031 17.7266C59.6328 18.4492 59.8477 19.1328 59.8477 19.7773C59.8477 20.3828 59.6426 20.8613 59.2324 21.2129C58.8418 21.5645 58.3145 21.7402 57.6504 21.7402C56.8887 21.7402 56.2734 21.4766 55.8047 20.9492C55.3359 20.4219 55.1016 19.709 55.1016 18.8105C55.1016 17.6582 55.5117 16.5938 56.332 15.6172C57.1523 14.6406 58.2656 13.8594 59.6719 13.2734C61.0781 12.6875 62.6406 12.3945 64.3594 12.3945C67.0938 12.3945 69.0176 13.3418 70.1309 15.2363C71.2637 17.1309 71.8301 19.8164 71.8301 23.293V34.9824C71.8301 36.5059 72.2988 37.2676 73.2363 37.2676C73.7637 37.2676 74.2715 37.1992 74.7598 37.0625C75.248 36.9062 75.6582 36.4668 75.9902 35.7441L76.4883 36.5352C75.7656 37.4141 75.0527 37.9902 74.3496 38.2637C73.666 38.5371 72.7773 38.6738 71.6836 38.6738C68.9102 38.6738 67.5234 37.1992 67.5234 34.25C66.6836 35.6172 65.6875 36.7012 64.5352 37.502C63.3828 38.2832 62.0547 38.6738 60.5508 38.6738ZM62.543 36.5938C63.4805 36.5938 64.3789 36.3496 65.2383 35.8613C66.1172 35.373 66.8691 34.4941 67.4941 33.2246V22.9707C67.4941 22.6582 67.4941 22.3457 67.4941 22.0332C67.2793 23.0488 66.8398 23.7617 66.1758 24.1719C65.5312 24.582 64.7891 24.8945 63.9492 25.1094C63.1094 25.3242 62.2793 25.6074 61.459 25.959C60.6582 26.3105 59.9941 26.916 59.4668 27.7754C58.9395 28.6348 58.6758 29.9434 58.6758 31.7012C58.6758 33.3027 59.0176 34.5234 59.7012 35.3633C60.4043 36.1836 61.3516 36.5938 62.543 36.5938ZM82.9922 49.8652C81.7617 49.8652 80.7754 49.4551 80.0332 48.6348C79.3105 47.834 78.9492 46.75 78.9492 45.3828C78.9492 44.3086 79.1836 43.4492 79.6523 42.8047C80.1406 42.1602 80.7754 41.8379 81.5566 41.8379C82.123 41.8379 82.5625 42.0137 82.875 42.3652C83.1875 42.7363 83.3438 43.1953 83.3438 43.7422C83.3438 44.5625 83.2559 45.2754 83.0801 45.8809C82.9043 46.5059 82.8164 47.1504 82.8164 47.8145C82.8164 48.4785 83.1094 48.8105 83.6953 48.8105C84.3984 48.8105 85.0137 48.4199 85.541 47.6387C86.0684 46.877 86.6055 45.7051 87.1523 44.123L89.1152 38.6152H88.2363L80.4141 17.4922C79.9844 16.3398 79.5156 15.4805 79.0078 14.9141C78.5195 14.3477 77.8555 14.0547 77.0156 14.0352V13.0977C78.0117 13.1562 78.8711 13.1855 79.5938 13.1855C80.3359 13.1855 81.2148 13.1855 82.2305 13.1855C83.6758 13.1855 84.8281 13.1855 85.6875 13.1855C86.5664 13.1855 87.4551 13.1562 88.3535 13.0977V14.0352C86.6152 13.9961 85.5215 14.2695 85.0723 14.8555C84.6426 15.4414 84.7305 16.584 85.3359 18.2832L90.7852 33.7812L95.707 19.6602C96.1367 18.4492 96.4785 17.4434 96.7324 16.6426C96.9863 15.8223 96.8496 15.1973 96.3223 14.7676C95.8145 14.3379 94.6035 14.0938 92.6895 14.0352V13.0977C93.666 13.1562 94.4277 13.1953 94.9746 13.2148C95.5215 13.2148 96.2734 13.2148 97.2305 13.2148C97.8555 13.2148 98.5684 13.2148 99.3691 13.2148C100.189 13.2148 100.844 13.1758 101.332 13.0977V14.0352C100.004 14.4062 98.9395 15.3242 98.1387 16.7891C97.3574 18.2344 96.4785 20.3438 95.502 23.1172L90.1699 38.1172L87.9141 44.9434C87.3672 46.5645 86.7031 47.7852 85.9219 48.6055C85.1602 49.4453 84.1836 49.8652 82.9922 49.8652ZM126.234 38.6738C124.281 38.6738 122.719 38.1074 121.547 36.9746C120.395 35.8418 119.818 34.1816 119.818 31.9941C119.818 30.4316 120.111 29.1914 120.697 28.2734C121.303 27.3555 122.084 26.6523 123.041 26.1641C123.998 25.6562 125.023 25.2656 126.117 24.9922C127.211 24.6992 128.266 24.4258 129.281 24.1719C130.297 23.8984 131.146 23.5371 131.83 23.0879C132.533 22.6191 132.963 21.9551 133.119 21.0957C132.982 18.7324 132.562 16.8965 131.859 15.5879C131.176 14.2793 130.189 13.625 128.9 13.625C127.65 13.625 126.557 13.8203 125.619 14.2109C124.701 14.582 124.242 15.0898 124.242 15.7344C124.242 16.3398 124.457 17.0039 124.887 17.7266C125.316 18.4492 125.531 19.1328 125.531 19.7773C125.531 20.3828 125.326 20.8613 124.916 21.2129C124.525 21.5645 123.998 21.7402 123.334 21.7402C122.572 21.7402 121.957 21.4766 121.488 20.9492C121.02 20.4219 120.785 19.709 120.785 18.8105C120.785 17.6582 121.195 16.5938 122.016 15.6172C122.836 14.6406 123.949 13.8594 125.355 13.2734C126.762 12.6875 128.324 12.3945 130.043 12.3945C132.777 12.3945 134.701 13.3418 135.814 15.2363C136.947 17.1309 137.514 19.8164 137.514 23.293V34.9824C137.514 36.5059 137.982 37.2676 138.92 37.2676C139.447 37.2676 139.955 37.1992 140.443 37.0625C140.932 36.9062 141.342 36.4668 141.674 35.7441L142.172 36.5352C141.449 37.4141 140.736 37.9902 140.033 38.2637C139.35 38.5371 138.461 38.6738 137.367 38.6738C134.594 38.6738 133.207 37.1992 133.207 34.25C132.367 35.6172 131.371 36.7012 130.219 37.502C129.066 38.2832 127.738 38.6738 126.234 38.6738ZM128.227 36.5938C129.164 36.5938 130.062 36.3496 130.922 35.8613C131.801 35.373 132.553 34.4941 133.178 33.2246V22.9707C133.178 22.6582 133.178 22.3457 133.178 22.0332C132.963 23.0488 132.523 23.7617 131.859 24.1719C131.215 24.582 130.473 24.8945 129.633 25.1094C128.793 25.3242 127.963 25.6074 127.143 25.959C126.342 26.3105 125.678 26.916 125.15 27.7754C124.623 28.6348 124.359 29.9434 124.359 31.7012C124.359 33.3027 124.701 34.5234 125.385 35.3633C126.088 36.1836 127.035 36.5938 128.227 36.5938ZM152.309 38.6738C150.316 38.6738 148.891 38.0879 148.031 36.916C147.172 35.7441 146.742 33.8301 146.742 31.1738V14.0352H142.729V13.127H146.742V5.74414C147.504 5.76367 148.256 5.70508 148.998 5.56836C149.74 5.41211 150.443 5.23633 151.107 5.04102V13.127H156.938V14.0352H151.107V34.3672C151.107 35.3242 151.283 36.0371 151.635 36.5059C152.006 36.9551 152.631 37.1797 153.51 37.1797C154.369 37.1797 155.131 36.6719 155.795 35.6562C156.459 34.6406 156.918 33.3711 157.172 31.8477L157.846 32.0527C157.104 36.4668 155.258 38.6738 152.309 38.6738ZM182.895 38.6738C180.902 38.6738 179.477 38.0879 178.617 36.916C177.758 35.7441 177.328 33.8301 177.328 31.1738V14.0352H173.314V13.127H177.328V5.74414C178.09 5.76367 178.842 5.70508 179.584 5.56836C180.326 5.41211 181.029 5.23633 181.693 5.04102V13.127H187.523V14.0352H181.693V34.3672C181.693 35.3242 181.869 36.0371 182.221 36.5059C182.592 36.9551 183.217 37.1797 184.096 37.1797C184.955 37.1797 185.717 36.6719 186.381 35.6562C187.045 34.6406 187.504 33.3711 187.758 31.8477L188.432 32.0527C187.689 36.4668 185.844 38.6738 182.895 38.6738ZM189.75 38V37.0918C191.547 37.1113 192.768 36.8672 193.412 36.3594C194.076 35.832 194.408 34.9141 194.408 33.6055V5.80273C194.408 4.2793 194.066 3.21484 193.383 2.60938C192.719 2.00391 191.508 1.65234 189.75 1.55469V0.617188C190.375 0.675781 190.98 0.714844 191.566 0.734375C192.172 0.753906 192.768 0.763672 193.354 0.763672C195.326 0.763672 197.133 0.539062 198.773 0.0898438V17.9902C199.594 16.0371 200.717 14.6211 202.143 13.7422C203.588 12.8438 205.17 12.3945 206.889 12.3945C209.369 12.3945 211.273 13.3418 212.602 15.2363C213.949 17.1113 214.623 19.8262 214.623 23.3809V33.6055C214.623 34.9141 214.955 35.832 215.619 36.3594C216.303 36.8672 217.533 37.1113 219.311 37.0918V38C218.646 37.9609 217.65 37.9219 216.322 37.8828C215.014 37.8242 213.734 37.7949 212.484 37.7949C211.352 37.7949 210.238 37.8242 209.145 37.8828C208.07 37.9219 207.27 37.9609 206.742 38V37.0918C208.109 37.1113 209.037 36.8672 209.525 36.3594C210.033 35.832 210.287 34.9141 210.287 33.6055V21.0078C210.287 18.5664 209.857 16.7793 208.998 15.6465C208.139 14.5137 206.859 13.9473 205.16 13.9473C203.891 13.9473 202.709 14.4648 201.615 15.5C200.521 16.5156 199.574 18.0586 198.773 20.1289V33.6055C198.773 34.9141 199.027 35.832 199.535 36.3594C200.043 36.8672 200.98 37.1113 202.348 37.0918V38C201.703 37.9609 200.844 37.9219 199.77 37.8828C198.715 37.8242 197.641 37.7949 196.547 37.7949C195.395 37.7949 194.184 37.8145 192.914 37.8535C191.664 37.873 190.609 37.9219 189.75 38ZM234.223 38.6738C231.977 38.6738 230.014 38.1367 228.334 37.0625C226.654 35.9883 225.346 34.4941 224.408 32.5801C223.471 30.666 223.002 28.4688 223.002 25.9883C223.002 21.9062 224.027 18.625 226.078 16.1445C228.148 13.6445 230.99 12.3945 234.604 12.3945C236.596 12.3945 238.324 12.9219 239.789 13.9766C241.273 15.0312 242.416 16.3984 243.217 18.0781C244.018 19.7578 244.398 21.5254 244.359 23.3809H227.719C227.699 23.5957 227.689 23.8984 227.689 24.2891C227.689 28.6445 228.383 31.8672 229.77 33.957C231.176 36.0469 233.158 37.0918 235.717 37.0918C237.357 37.0918 238.871 36.7012 240.258 35.9199C241.645 35.1387 242.738 33.8594 243.539 32.082L244.33 33.0488C243.568 34.9238 242.289 36.3301 240.492 37.2676C238.715 38.2051 236.625 38.6738 234.223 38.6738ZM234.311 13.332C233.256 13.332 232.26 13.7812 231.322 14.6797C230.404 15.5586 229.623 16.7012 228.979 18.1074C228.354 19.4941 227.953 20.9297 227.777 22.4141H239.73C239.789 19.0547 239.369 16.7012 238.471 15.3535C237.592 14.0059 236.205 13.332 234.311 13.332ZM0.814453 98V97.0918C2.31836 96.9355 3.55859 96.584 4.53516 96.0371C5.51172 95.4902 6.3125 94.5234 6.9375 93.1367L20.4141 63.1953H21.8789L36.0586 93.6934C36.5664 94.7676 37.2695 95.5781 38.168 96.125C39.0664 96.6719 40.2969 96.9941 41.8594 97.0918V98C40.8047 97.9609 39.6523 97.9316 38.4023 97.9121C37.1719 97.873 35.9316 97.8535 34.6816 97.8535C32.7871 97.8535 31.0879 97.873 29.584 97.9121C28.0996 97.9316 26.9277 97.9609 26.0684 98V97.0918C28.8027 97.0527 30.4824 96.7305 31.1074 96.125C31.7324 95.5195 31.6738 94.416 30.9316 92.8145L27.3867 85.168H11.5371L10.7168 86.9258C9.13477 90.3047 8.68555 92.8633 9.36914 94.6016C10.0723 96.3203 11.7324 97.1504 14.3496 97.0918V98C13.4512 97.9805 12.2988 97.9512 10.8926 97.9121C9.50586 97.873 8.08008 97.8535 6.61523 97.8535C5.79492 97.8535 5.00391 97.873 4.24219 97.9121C3.5 97.9316 2.35742 97.9609 0.814453 98ZM11.9766 84.2598H27.0059L19.6523 67.1211L11.9766 84.2598ZM43.4707 98V97.0918C44.9746 97.0527 45.9902 96.7988 46.5176 96.3301C47.0645 95.8613 47.3379 94.9531 47.3379 93.6055V78.2246C47.3379 76.7793 47.0449 75.7441 46.459 75.1191C45.873 74.4746 44.877 74.0938 43.4707 73.9766V73.0684C44.1543 73.1465 44.7598 73.1953 45.2871 73.2148C45.834 73.2148 46.3613 73.2148 46.8691 73.2148C47.6113 73.2148 48.4023 73.166 49.2422 73.0684C50.082 72.9707 50.9023 72.7949 51.7031 72.541V75.793C52.3086 74.6406 53.207 73.791 54.3984 73.2441C55.6094 72.6777 56.791 72.3945 57.9434 72.3945C59.1543 72.3945 60.1211 72.8242 60.8438 73.6836C61.5664 74.5234 61.9277 75.6172 61.9277 76.9648C61.9277 78.1562 61.7227 79.1426 61.3125 79.9238C60.9023 80.6855 60.3555 81.0664 59.6719 81.0664C59.0273 81.0664 58.5 80.8809 58.0898 80.5098C57.6992 80.1191 57.5039 79.5918 57.5039 78.9277C57.5039 78.0098 57.6406 77.2676 57.9141 76.7012C58.1875 76.1348 58.3242 75.5098 58.3242 74.8262C58.3242 74.2207 57.8457 73.918 56.8887 73.918C55.9121 73.918 54.877 74.2109 53.7832 74.7969C52.709 75.3828 52.0156 76.4766 51.7031 78.0781V93.2539C51.7031 94.6406 52.0742 95.6172 52.8164 96.1836C53.5781 96.75 54.877 97.0527 56.7129 97.0918V98C55.9902 97.9609 54.9551 97.9219 53.6074 97.8828C52.2793 97.8242 50.9512 97.7949 49.623 97.7949C48.373 97.7949 47.1816 97.8242 46.0488 97.8828C44.916 97.9219 44.0566 97.9609 43.4707 98ZM72.8848 98.6738C70.8926 98.6738 69.4668 98.0879 68.6074 96.916C67.748 95.7441 67.3184 93.8301 67.3184 91.1738V74.0352H63.3047V73.127H67.3184V65.7441C68.0801 65.7637 68.832 65.7051 69.5742 65.5684C70.3164 65.4121 71.0195 65.2363 71.6836 65.041V73.127H77.5137V74.0352H71.6836V94.3672C71.6836 95.3242 71.8594 96.0371 72.2109 96.5059C72.582 96.9551 73.207 97.1797 74.0859 97.1797C74.9453 97.1797 75.707 96.6719 76.3711 95.6562C77.0352 94.6406 77.4941 93.3711 77.748 91.8477L78.4219 92.0527C77.6797 96.4668 75.834 98.6738 72.8848 98.6738ZM115.307 98.6738C111.596 98.6738 108.354 97.9707 105.58 96.5645C102.826 95.1387 100.688 93.1367 99.1641 90.5586C97.6406 87.9609 96.8789 84.9141 96.8789 81.418C96.8789 77.7656 97.6699 74.5723 99.252 71.8379C100.834 69.084 103.031 66.9355 105.844 65.3926C108.676 63.8496 111.928 63.0781 115.6 63.0781C117.65 63.0781 119.516 63.3125 121.195 63.7812C122.875 64.25 124.32 64.7285 125.531 65.2168C126.762 65.6855 127.699 65.9199 128.344 65.9199C129.008 65.9199 129.506 65.7148 129.838 65.3047C130.17 64.875 130.453 64.1719 130.688 63.1953H131.596C131.557 64.0156 131.518 64.9336 131.479 65.9492C131.439 66.9453 131.41 68.2051 131.391 69.7285C131.391 71.2324 131.391 73.1855 131.391 75.5879H130.453C129.555 71.6816 127.807 68.7617 125.209 66.8281C122.631 64.875 119.457 63.8984 115.688 63.8984C111.293 63.8984 107.865 65.3828 105.404 68.3516C102.943 71.3203 101.713 75.4609 101.713 80.7734C101.713 86.125 102.963 90.3145 105.463 93.3418C107.963 96.3496 111.43 97.8535 115.863 97.8535C119.359 97.8535 122.074 97.1016 124.008 95.5977C125.961 94.0938 126.938 92.1699 126.938 89.8262V88.127C126.938 86.8965 126.781 85.959 126.469 85.3145C126.176 84.6699 125.609 84.2305 124.77 83.9961C123.93 83.7422 122.699 83.6055 121.078 83.5859V82.6777C121.605 82.6973 122.514 82.7266 123.803 82.7656C125.092 82.8047 126.664 82.8242 128.52 82.8242C129.984 82.8242 131.283 82.8145 132.416 82.7949C133.549 82.7559 134.516 82.7168 135.316 82.6777V83.5859C134.164 83.6445 133.314 83.7715 132.768 83.9668C132.221 84.1621 131.869 84.543 131.713 85.1094C131.557 85.6758 131.479 86.5547 131.479 87.7461V98.498H130.57C130.102 96.8965 129.311 96.0957 128.197 96.0957C127.436 96.0957 126.488 96.3105 125.355 96.7402C124.242 97.1699 122.865 97.5996 121.225 98.0293C119.604 98.459 117.631 98.6738 115.307 98.6738ZM148.119 98.6738C146.166 98.6738 144.604 98.1074 143.432 96.9746C142.279 95.8418 141.703 94.1816 141.703 91.9941C141.703 90.4316 141.996 89.1914 142.582 88.2734C143.188 87.3555 143.969 86.6523 144.926 86.1641C145.883 85.6562 146.908 85.2656 148.002 84.9922C149.096 84.6992 150.15 84.4258 151.166 84.1719C152.182 83.8984 153.031 83.5371 153.715 83.0879C154.418 82.6191 154.848 81.9551 155.004 81.0957C154.867 78.7324 154.447 76.8965 153.744 75.5879C153.061 74.2793 152.074 73.625 150.785 73.625C149.535 73.625 148.441 73.8203 147.504 74.2109C146.586 74.582 146.127 75.0898 146.127 75.7344C146.127 76.3398 146.342 77.0039 146.771 77.7266C147.201 78.4492 147.416 79.1328 147.416 79.7773C147.416 80.3828 147.211 80.8613 146.801 81.2129C146.41 81.5645 145.883 81.7402 145.219 81.7402C144.457 81.7402 143.842 81.4766 143.373 80.9492C142.904 80.4219 142.67 79.709 142.67 78.8105C142.67 77.6582 143.08 76.5938 143.9 75.6172C144.721 74.6406 145.834 73.8594 147.24 73.2734C148.646 72.6875 150.209 72.3945 151.928 72.3945C154.662 72.3945 156.586 73.3418 157.699 75.2363C158.832 77.1309 159.398 79.8164 159.398 83.293V94.9824C159.398 96.5059 159.867 97.2676 160.805 97.2676C161.332 97.2676 161.84 97.1992 162.328 97.0625C162.816 96.9062 163.227 96.4668 163.559 95.7441L164.057 96.5352C163.334 97.4141 162.621 97.9902 161.918 98.2637C161.234 98.5371 160.346 98.6738 159.252 98.6738C156.479 98.6738 155.092 97.1992 155.092 94.25C154.252 95.6172 153.256 96.7012 152.104 97.502C150.951 98.2832 149.623 98.6738 148.119 98.6738ZM150.111 96.5938C151.049 96.5938 151.947 96.3496 152.807 95.8613C153.686 95.373 154.438 94.4941 155.062 93.2246V82.9707C155.062 82.6582 155.062 82.3457 155.062 82.0332C154.848 83.0488 154.408 83.7617 153.744 84.1719C153.1 84.582 152.357 84.8945 151.518 85.1094C150.678 85.3242 149.848 85.6074 149.027 85.959C148.227 86.3105 147.562 86.916 147.035 87.7754C146.508 88.6348 146.244 89.9434 146.244 91.7012C146.244 93.3027 146.586 94.5234 147.27 95.3633C147.973 96.1836 148.92 96.5938 150.111 96.5938ZM165.346 98V97.0918C166.869 97.0527 167.934 96.7988 168.539 96.3301C169.145 95.8613 169.447 94.9531 169.447 93.6055V65.7441C169.447 64.5332 169.135 63.5664 168.51 62.8438C167.904 62.1016 166.85 61.6523 165.346 61.4961V60.5879C165.971 60.6465 166.557 60.6855 167.104 60.7051C167.65 60.7246 168.197 60.7344 168.744 60.7344C169.701 60.7344 170.6 60.6855 171.439 60.5879C172.299 60.4707 173.09 60.2949 173.812 60.0605V93.6055C173.812 94.9531 174.115 95.8613 174.721 96.3301C175.326 96.7988 176.391 97.0527 177.914 97.0918V98C177.309 97.9609 176.41 97.9219 175.219 97.8828C174.027 97.8242 172.836 97.7949 171.645 97.7949C170.453 97.7949 169.262 97.8242 168.07 97.8828C166.879 97.9219 165.971 97.9609 165.346 98ZM179.877 98V97.0918C181.4 97.0527 182.465 96.7988 183.07 96.3301C183.676 95.8613 183.979 94.9531 183.979 93.6055V65.7441C183.979 64.5332 183.666 63.5664 183.041 62.8438C182.436 62.1016 181.381 61.6523 179.877 61.4961V60.5879C180.502 60.6465 181.088 60.6855 181.635 60.7051C182.182 60.7246 182.729 60.7344 183.275 60.7344C184.232 60.7344 185.131 60.6855 185.971 60.5879C186.83 60.4707 187.621 60.2949 188.344 60.0605V93.6055C188.344 94.9531 188.646 95.8613 189.252 96.3301C189.857 96.7988 190.922 97.0527 192.445 97.0918V98C191.84 97.9609 190.941 97.9219 189.75 97.8828C188.559 97.8242 187.367 97.7949 186.176 97.7949C184.984 97.7949 183.793 97.8242 182.602 97.8828C181.41 97.9219 180.502 97.9609 179.877 98ZM207.533 98.6738C205.287 98.6738 203.324 98.1367 201.645 97.0625C199.965 95.9883 198.656 94.4941 197.719 92.5801C196.781 90.666 196.312 88.4688 196.312 85.9883C196.312 81.9062 197.338 78.625 199.389 76.1445C201.459 73.6445 204.301 72.3945 207.914 72.3945C209.906 72.3945 211.635 72.9219 213.1 73.9766C214.584 75.0312 215.727 76.3984 216.527 78.0781C217.328 79.7578 217.709 81.5254 217.67 83.3809H201.029C201.01 83.5957 201 83.8984 201 84.2891C201 88.6445 201.693 91.8672 203.08 93.957C204.486 96.0469 206.469 97.0918 209.027 97.0918C210.668 97.0918 212.182 96.7012 213.568 95.9199C214.955 95.1387 216.049 93.8594 216.85 92.082L217.641 93.0488C216.879 94.9238 215.6 96.3301 213.803 97.2676C212.025 98.2051 209.936 98.6738 207.533 98.6738ZM207.621 73.332C206.566 73.332 205.57 73.7812 204.633 74.6797C203.715 75.5586 202.934 76.7012 202.289 78.1074C201.664 79.4941 201.264 80.9297 201.088 82.4141H213.041C213.1 79.0547 212.68 76.7012 211.781 75.3535C210.902 74.0059 209.516 73.332 207.621 73.332ZM221.771 98V97.0918C223.275 97.0527 224.291 96.7988 224.818 96.3301C225.365 95.8613 225.639 94.9531 225.639 93.6055V78.2246C225.639 76.7793 225.346 75.7441 224.76 75.1191C224.174 74.4746 223.178 74.0938 221.771 73.9766V73.0684C222.455 73.1465 223.061 73.1953 223.588 73.2148C224.135 73.2148 224.662 73.2148 225.17 73.2148C225.912 73.2148 226.703 73.166 227.543 73.0684C228.383 72.9707 229.203 72.7949 230.004 72.541V75.793C230.609 74.6406 231.508 73.791 232.699 73.2441C233.91 72.6777 235.092 72.3945 236.244 72.3945C237.455 72.3945 238.422 72.8242 239.145 73.6836C239.867 74.5234 240.229 75.6172 240.229 76.9648C240.229 78.1562 240.023 79.1426 239.613 79.9238C239.203 80.6855 238.656 81.0664 237.973 81.0664C237.328 81.0664 236.801 80.8809 236.391 80.5098C236 80.1191 235.805 79.5918 235.805 78.9277C235.805 78.0098 235.941 77.2676 236.215 76.7012C236.488 76.1348 236.625 75.5098 236.625 74.8262C236.625 74.2207 236.146 73.918 235.189 73.918C234.213 73.918 233.178 74.2109 232.084 74.7969C231.01 75.3828 230.316 76.4766 230.004 78.0781V93.2539C230.004 94.6406 230.375 95.6172 231.117 96.1836C231.879 96.75 233.178 97.0527 235.014 97.0918V98C234.291 97.9609 233.256 97.9219 231.908 97.8828C230.58 97.8242 229.252 97.7949 227.924 97.7949C226.674 97.7949 225.482 97.8242 224.35 97.8828C223.217 97.9219 222.357 97.9609 221.771 98ZM247.553 109.865C246.322 109.865 245.336 109.455 244.594 108.635C243.871 107.834 243.51 106.75 243.51 105.383C243.51 104.309 243.744 103.449 244.213 102.805C244.701 102.16 245.336 101.838 246.117 101.838C246.684 101.838 247.123 102.014 247.436 102.365C247.748 102.736 247.904 103.195 247.904 103.742C247.904 104.562 247.816 105.275 247.641 105.881C247.465 106.506 247.377 107.15 247.377 107.814C247.377 108.479 247.67 108.811 248.256 108.811C248.959 108.811 249.574 108.42 250.102 107.639C250.629 106.877 251.166 105.705 251.713 104.123L253.676 98.6152H252.797L244.975 77.4922C244.545 76.3398 244.076 75.4805 243.568 74.9141C243.08 74.3477 242.416 74.0547 241.576 74.0352V73.0977C242.572 73.1562 243.432 73.1855 244.154 73.1855C244.896 73.1855 245.775 73.1855 246.791 73.1855C248.236 73.1855 249.389 73.1855 250.248 73.1855C251.127 73.1855 252.016 73.1562 252.914 73.0977V74.0352C251.176 73.9961 250.082 74.2695 249.633 74.8555C249.203 75.4414 249.291 76.584 249.896 78.2832L255.346 93.7812L260.268 79.6602C260.697 78.4492 261.039 77.4434 261.293 76.6426C261.547 75.8223 261.41 75.1973 260.883 74.7676C260.375 74.3379 259.164 74.0938 257.25 74.0352V73.0977C258.227 73.1562 258.988 73.1953 259.535 73.2148C260.082 73.2148 260.834 73.2148 261.791 73.2148C262.416 73.2148 263.129 73.2148 263.93 73.2148C264.75 73.2148 265.404 73.1758 265.893 73.0977V74.0352C264.564 74.4062 263.5 75.3242 262.699 76.7891C261.918 78.2344 261.039 80.3438 260.062 83.1172L254.73 98.1172L252.475 104.943C251.928 106.564 251.264 107.785 250.482 108.605C249.721 109.445 248.744 109.865 247.553 109.865Z" fill="url(#paint0_linear_173_50)"/>
<defs>
<linearGradient id="paint0_linear_173_50" x1="-8" y1="-5.99999" x2="270.5" y2="105" gradientUnits="userSpaceOnUse">
<stop stop-color="#090909"/>
<stop offset="1" stop-color="#727272"/>
</linearGradient>
</defs>
</svg>
