<svg width="276" height="110" viewBox="0 0 276 110" fill="none" xmlns="http://www.w3.org/2000/svg">
<path d="M34.3105 38.5566H33.1094L7.41602 6.59375H7.00586V32.5215C7.00586 33.3027 7.11328 34.0352 7.32812 34.7188C7.54297 35.3828 8.12891 35.9297 9.08594 36.3594C10.043 36.7695 11.6348 37.0137 13.8613 37.0918V38C13.1582 37.9609 12.1523 37.9316 10.8438 37.9121C9.53516 37.873 8.1582 37.8535 6.71289 37.8535C3.88086 37.8535 1.70312 37.9023 0.179688 38V37.0918C2.07422 37.0332 3.43164 36.7988 4.25195 36.3887C5.07227 35.959 5.58008 35.4121 5.77539 34.748C5.9707 34.0645 6.06836 33.3223 6.06836 32.5215V8.79102C6.06836 7.89258 5.96094 7.15039 5.74609 6.56445C5.55078 5.97852 5.0332 5.5293 4.19336 5.2168C3.37305 4.9043 2.03516 4.70898 0.179688 4.63086V3.75195C0.921875 3.83008 1.87891 3.87891 3.05078 3.89844C4.24219 3.89844 5.51172 3.89844 6.85938 3.89844C7.71875 3.89844 8.50977 3.88867 9.23242 3.86914C9.97461 3.83008 10.6191 3.79102 11.166 3.75195L32.9336 32.2871H33.373V9.17188C33.373 8.39062 33.2266 7.67773 32.9336 7.0332C32.6406 6.36914 32.0059 5.82227 31.0293 5.39258C30.0527 4.96289 28.5391 4.70898 26.4883 4.63086V3.75195C27.2109 3.79102 28.2363 3.83008 29.5645 3.86914C30.8926 3.88867 32.2598 3.89844 33.666 3.89844C36.5176 3.89844 38.6953 3.84961 40.1992 3.75195V4.63086C38.4805 4.66992 37.2012 4.9043 36.3613 5.33398C35.5215 5.76367 34.9648 6.32031 34.6914 7.00391C34.4375 7.66797 34.3105 8.39062 34.3105 9.17188V38.5566ZM44.1836 38V37.0918C45.6289 37.0527 46.6348 36.7988 47.2012 36.3301C47.7871 35.8613 48.0801 34.9531 48.0801 33.6055V18.2246C48.0801 17.0137 47.7871 16.0566 47.2012 15.3535C46.6152 14.6309 45.6094 14.1719 44.1836 13.9766V13.0684C44.8086 13.127 45.3848 13.166 45.9121 13.1855C46.459 13.2051 46.9766 13.2148 47.4648 13.2148C49.457 13.2148 51.1172 12.9902 52.4453 12.541V33.6055C52.4453 34.9531 52.7383 35.8613 53.3242 36.3301C53.9102 36.7988 54.9355 37.0527 56.4004 37.0918V38C55.8145 37.9609 54.9355 37.9219 53.7637 37.8828C52.6113 37.8242 51.459 37.7949 50.3066 37.7949C49.1543 37.7949 47.9922 37.8242 46.8203 37.8828C45.6484 37.9219 44.7695 37.9609 44.1836 38ZM50.5117 7.15039C49.7305 7.15039 49.0664 6.84766 48.5195 6.24219C47.9727 5.61719 47.6992 4.89453 47.6992 4.07422C47.6992 3.23438 47.9727 2.52148 48.5195 1.93555C49.0664 1.34961 49.7305 1.05664 50.5117 1.05664C51.2539 1.05664 51.8984 1.34961 52.4453 1.93555C52.9922 2.52148 53.2656 3.23438 53.2656 4.07422C53.2656 4.89453 52.9922 5.61719 52.4453 6.24219C51.8984 6.84766 51.2539 7.15039 50.5117 7.15039ZM67.9434 28.3027C67.8262 28.3027 67.709 28.3027 67.5918 28.3027C66.8887 29.0254 66.3516 29.6406 65.9805 30.1484C65.6289 30.6562 65.4531 31.1543 65.4531 31.6426C65.4531 32.834 66.4492 33.4297 68.4414 33.4297H72.1328C74.457 33.4297 76.2344 33.9277 77.4648 34.9238C78.7148 35.9004 79.3398 37.3555 79.3398 39.2891C79.3398 41.3008 78.832 43.0781 77.8164 44.6211C76.8008 46.1641 75.4141 47.375 73.6562 48.2539C71.918 49.1328 69.9258 49.5723 67.6797 49.5723C64.9453 49.5723 62.7676 48.957 61.1465 47.7266C59.5449 46.4961 58.7441 44.8652 58.7441 42.834C58.7441 41.4863 59.1934 40.3438 60.0918 39.4062C61.0098 38.4688 62.377 37.4727 64.1934 36.418C62.9629 35.5977 62.3477 34.4258 62.3477 32.9023C62.3477 31.5352 63.7344 29.9727 66.5078 28.2148C64.4375 27.9219 62.8555 27.0527 61.7617 25.6074C60.668 24.1621 60.1211 22.4141 60.1211 20.3633C60.1211 18.0586 60.7949 16.1543 62.1426 14.6504C63.5098 13.1465 65.4629 12.3945 68.002 12.3945C69.3887 12.3945 70.5898 12.6387 71.6055 13.127C72.6406 13.6152 73.4902 14.2793 74.1543 15.1191C74.7207 14.3379 75.3945 13.6934 76.1758 13.1855C76.9766 12.6582 77.7578 12.3945 78.5195 12.3945C79.3203 12.3945 79.9648 12.6875 80.4531 13.2734C80.9414 13.8594 81.1855 14.6699 81.1855 15.7051C81.1855 16.6816 81.0293 17.4727 80.7168 18.0781C80.4238 18.6836 80.0234 18.9863 79.5156 18.9863C78.9883 18.9863 78.5977 18.7422 78.3438 18.2539C78.1094 17.7656 77.9238 17.1992 77.7871 16.5547C77.6699 15.9102 77.543 15.3438 77.4062 14.8555C77.2695 14.3672 77.0547 14.123 76.7617 14.123C76.5859 14.123 76.2832 14.2598 75.8535 14.5332C75.4434 14.7871 75.0527 15.2266 74.6816 15.8516C75.4434 17.1406 75.8242 18.6445 75.8242 20.3633C75.8242 22.6289 75.1504 24.5234 73.8027 26.0469C72.4551 27.5508 70.502 28.3027 67.9434 28.3027ZM67.9434 27.4824C69.1738 27.4824 70.043 26.8477 70.5508 25.5781C71.0781 24.2891 71.3418 22.5508 71.3418 20.3633C71.3418 18.1758 71.0781 16.4473 70.5508 15.1777C70.043 13.9082 69.1738 13.2734 67.9434 13.2734C66.752 13.2734 65.8926 13.8984 65.3652 15.1484C64.8574 16.3984 64.6035 18.1367 64.6035 20.3633C64.6035 22.5508 64.8574 24.2891 65.3652 25.5781C65.8926 26.8477 66.752 27.4824 67.9434 27.4824ZM62.7285 42.0723C62.7285 43.9668 63.1484 45.4902 63.9883 46.6426C64.8477 47.8145 66.1074 48.4004 67.7676 48.4004C69.9746 48.4004 71.8301 47.7559 73.334 46.4668C74.8574 45.1777 75.6191 43.4395 75.6191 41.252C75.6191 40.0215 75.2285 39.0645 74.4473 38.3809C73.666 37.6973 72.4551 37.3555 70.8145 37.3555H67.8555C66.6445 37.3555 65.5996 37.1406 64.7207 36.7109C64.0957 37.1406 63.6074 37.8535 63.2559 38.8496C62.9043 39.8652 62.7285 40.9395 62.7285 42.0723ZM83.2363 38V37.0918C85.0332 37.1113 86.2539 36.8672 86.8984 36.3594C87.5625 35.832 87.8945 34.9141 87.8945 33.6055V5.80273C87.8945 4.2793 87.5527 3.21484 86.8691 2.60938C86.2051 2.00391 84.9941 1.65234 83.2363 1.55469V0.617188C83.8613 0.675781 84.4668 0.714844 85.0527 0.734375C85.6582 0.753906 86.2539 0.763672 86.8398 0.763672C88.8125 0.763672 90.6191 0.539062 92.2598 0.0898438V17.9902C93.0801 16.0371 94.2031 14.6211 95.6289 13.7422C97.0742 12.8438 98.6562 12.3945 100.375 12.3945C102.855 12.3945 104.76 13.3418 106.088 15.2363C107.436 17.1113 108.109 19.8262 108.109 23.3809V33.6055C108.109 34.9141 108.441 35.832 109.105 36.3594C109.789 36.8672 111.02 37.1113 112.797 37.0918V38C112.133 37.9609 111.137 37.9219 109.809 37.8828C108.5 37.8242 107.221 37.7949 105.971 37.7949C104.838 37.7949 103.725 37.8242 102.631 37.8828C101.557 37.9219 100.756 37.9609 100.229 38V37.0918C101.596 37.1113 102.523 36.8672 103.012 36.3594C103.52 35.832 103.773 34.9141 103.773 33.6055V21.0078C103.773 18.5664 103.344 16.7793 102.484 15.6465C101.625 14.5137 100.346 13.9473 98.6465 13.9473C97.377 13.9473 96.1953 14.4648 95.1016 15.5C94.0078 16.5156 93.0605 18.0586 92.2598 20.1289V33.6055C92.2598 34.9141 92.5137 35.832 93.0215 36.3594C93.5293 36.8672 94.4668 37.1113 95.834 37.0918V38C95.1895 37.9609 94.3301 37.9219 93.2559 37.8828C92.2012 37.8242 91.127 37.7949 90.0332 37.7949C88.8809 37.7949 87.6699 37.8145 86.4004 37.8535C85.1504 37.873 84.0957 37.9219 83.2363 38ZM123.432 38.6738C121.439 38.6738 120.014 38.0879 119.154 36.916C118.295 35.7441 117.865 33.8301 117.865 31.1738V14.0352H113.852V13.127H117.865V5.74414C118.627 5.76367 119.379 5.70508 120.121 5.56836C120.863 5.41211 121.566 5.23633 122.23 5.04102V13.127H128.061V14.0352H122.23V34.3672C122.23 35.3242 122.406 36.0371 122.758 36.5059C123.129 36.9551 123.754 37.1797 124.633 37.1797C125.492 37.1797 126.254 36.6719 126.918 35.6562C127.582 34.6406 128.041 33.3711 128.295 31.8477L128.969 32.0527C128.227 36.4668 126.381 38.6738 123.432 38.6738ZM153.549 38.6738C151.596 38.6738 150.033 38.1074 148.861 36.9746C147.709 35.8418 147.133 34.1816 147.133 31.9941C147.133 30.4316 147.426 29.1914 148.012 28.2734C148.617 27.3555 149.398 26.6523 150.355 26.1641C151.312 25.6562 152.338 25.2656 153.432 24.9922C154.525 24.6992 155.58 24.4258 156.596 24.1719C157.611 23.8984 158.461 23.5371 159.145 23.0879C159.848 22.6191 160.277 21.9551 160.434 21.0957C160.297 18.7324 159.877 16.8965 159.174 15.5879C158.49 14.2793 157.504 13.625 156.215 13.625C154.965 13.625 153.871 13.8203 152.934 14.2109C152.016 14.582 151.557 15.0898 151.557 15.7344C151.557 16.3398 151.771 17.0039 152.201 17.7266C152.631 18.4492 152.846 19.1328 152.846 19.7773C152.846 20.3828 152.641 20.8613 152.23 21.2129C151.84 21.5645 151.312 21.7402 150.648 21.7402C149.887 21.7402 149.271 21.4766 148.803 20.9492C148.334 20.4219 148.1 19.709 148.1 18.8105C148.1 17.6582 148.51 16.5938 149.33 15.6172C150.15 14.6406 151.264 13.8594 152.67 13.2734C154.076 12.6875 155.639 12.3945 157.357 12.3945C160.092 12.3945 162.016 13.3418 163.129 15.2363C164.262 17.1309 164.828 19.8164 164.828 23.293V34.9824C164.828 36.5059 165.297 37.2676 166.234 37.2676C166.762 37.2676 167.27 37.1992 167.758 37.0625C168.246 36.9062 168.656 36.4668 168.988 35.7441L169.486 36.5352C168.764 37.4141 168.051 37.9902 167.348 38.2637C166.664 38.5371 165.775 38.6738 164.682 38.6738C161.908 38.6738 160.521 37.1992 160.521 34.25C159.682 35.6172 158.686 36.7012 157.533 37.502C156.381 38.2832 155.053 38.6738 153.549 38.6738ZM155.541 36.5938C156.479 36.5938 157.377 36.3496 158.236 35.8613C159.115 35.373 159.867 34.4941 160.492 33.2246V22.9707C160.492 22.6582 160.492 22.3457 160.492 22.0332C160.277 23.0488 159.838 23.7617 159.174 24.1719C158.529 24.582 157.787 24.8945 156.947 25.1094C156.107 25.3242 155.277 25.6074 154.457 25.959C153.656 26.3105 152.992 26.916 152.465 27.7754C151.938 28.6348 151.674 29.9434 151.674 31.7012C151.674 33.3027 152.016 34.5234 152.699 35.3633C153.402 36.1836 154.35 36.5938 155.541 36.5938ZM179.623 38.6738C177.631 38.6738 176.205 38.0879 175.346 36.916C174.486 35.7441 174.057 33.8301 174.057 31.1738V14.0352H170.043V13.127H174.057V5.74414C174.818 5.76367 175.57 5.70508 176.312 5.56836C177.055 5.41211 177.758 5.23633 178.422 5.04102V13.127H184.252V14.0352H178.422V34.3672C178.422 35.3242 178.598 36.0371 178.949 36.5059C179.32 36.9551 179.945 37.1797 180.824 37.1797C181.684 37.1797 182.445 36.6719 183.109 35.6562C183.773 34.6406 184.232 33.3711 184.486 31.8477L185.16 32.0527C184.418 36.4668 182.572 38.6738 179.623 38.6738ZM210.209 38.6738C208.217 38.6738 206.791 38.0879 205.932 36.916C205.072 35.7441 204.643 33.8301 204.643 31.1738V14.0352H200.629V13.127H204.643V5.74414C205.404 5.76367 206.156 5.70508 206.898 5.56836C207.641 5.41211 208.344 5.23633 209.008 5.04102V13.127H214.838V14.0352H209.008V34.3672C209.008 35.3242 209.184 36.0371 209.535 36.5059C209.906 36.9551 210.531 37.1797 211.41 37.1797C212.27 37.1797 213.031 36.6719 213.695 35.6562C214.359 34.6406 214.818 33.3711 215.072 31.8477L215.746 32.0527C215.004 36.4668 213.158 38.6738 210.209 38.6738ZM217.064 38V37.0918C218.861 37.1113 220.082 36.8672 220.727 36.3594C221.391 35.832 221.723 34.9141 221.723 33.6055V5.80273C221.723 4.2793 221.381 3.21484 220.697 2.60938C220.033 2.00391 218.822 1.65234 217.064 1.55469V0.617188C217.689 0.675781 218.295 0.714844 218.881 0.734375C219.486 0.753906 220.082 0.763672 220.668 0.763672C222.641 0.763672 224.447 0.539062 226.088 0.0898438V17.9902C226.908 16.0371 228.031 14.6211 229.457 13.7422C230.902 12.8438 232.484 12.3945 234.203 12.3945C236.684 12.3945 238.588 13.3418 239.916 15.2363C241.264 17.1113 241.938 19.8262 241.938 23.3809V33.6055C241.938 34.9141 242.27 35.832 242.934 36.3594C243.617 36.8672 244.848 37.1113 246.625 37.0918V38C245.961 37.9609 244.965 37.9219 243.637 37.8828C242.328 37.8242 241.049 37.7949 239.799 37.7949C238.666 37.7949 237.553 37.8242 236.459 37.8828C235.385 37.9219 234.584 37.9609 234.057 38V37.0918C235.424 37.1113 236.352 36.8672 236.84 36.3594C237.348 35.832 237.602 34.9141 237.602 33.6055V21.0078C237.602 18.5664 237.172 16.7793 236.312 15.6465C235.453 14.5137 234.174 13.9473 232.475 13.9473C231.205 13.9473 230.023 14.4648 228.93 15.5C227.836 16.5156 226.889 18.0586 226.088 20.1289V33.6055C226.088 34.9141 226.342 35.832 226.85 36.3594C227.357 36.8672 228.295 37.1113 229.662 37.0918V38C229.018 37.9609 228.158 37.9219 227.084 37.8828C226.029 37.8242 224.955 37.7949 223.861 37.7949C222.709 37.7949 221.498 37.8145 220.229 37.8535C218.979 37.873 217.924 37.9219 217.064 38ZM261.537 38.6738C259.291 38.6738 257.328 38.1367 255.648 37.0625C253.969 35.9883 252.66 34.4941 251.723 32.5801C250.785 30.666 250.316 28.4688 250.316 25.9883C250.316 21.9062 251.342 18.625 253.393 16.1445C255.463 13.6445 258.305 12.3945 261.918 12.3945C263.91 12.3945 265.639 12.9219 267.104 13.9766C268.588 15.0312 269.73 16.3984 270.531 18.0781C271.332 19.7578 271.713 21.5254 271.674 23.3809H255.033C255.014 23.5957 255.004 23.8984 255.004 24.2891C255.004 28.6445 255.697 31.8672 257.084 33.957C258.49 36.0469 260.473 37.0918 263.031 37.0918C264.672 37.0918 266.186 36.7012 267.572 35.9199C268.959 35.1387 270.053 33.8594 270.854 32.082L271.645 33.0488C270.883 34.9238 269.604 36.3301 267.807 37.2676C266.029 38.2051 263.939 38.6738 261.537 38.6738ZM261.625 13.332C260.57 13.332 259.574 13.7812 258.637 14.6797C257.719 15.5586 256.938 16.7012 256.293 18.1074C255.668 19.4941 255.268 20.9297 255.092 22.4141H267.045C267.104 19.0547 266.684 16.7012 265.785 15.3535C264.906 14.0059 263.52 13.332 261.625 13.332ZM10.8145 98V97.0918C12.3184 96.9355 13.5586 96.584 14.5352 96.0371C15.5117 95.4902 16.3125 94.5234 16.9375 93.1367L30.4141 63.1953H31.8789L46.0586 93.6934C46.5664 94.7676 47.2695 95.5781 48.168 96.125C49.0664 96.6719 50.2969 96.9941 51.8594 97.0918V98C50.8047 97.9609 49.6523 97.9316 48.4023 97.9121C47.1719 97.873 45.9316 97.8535 44.6816 97.8535C42.7871 97.8535 41.0879 97.873 39.584 97.9121C38.0996 97.9316 36.9277 97.9609 36.0684 98V97.0918C38.8027 97.0527 40.4824 96.7305 41.1074 96.125C41.7324 95.5195 41.6738 94.416 40.9316 92.8145L37.3867 85.168H21.5371L20.7168 86.9258C19.1348 90.3047 18.6855 92.8633 19.3691 94.6016C20.0723 96.3203 21.7324 97.1504 24.3496 97.0918V98C23.4512 97.9805 22.2988 97.9512 20.8926 97.9121C19.5059 97.873 18.0801 97.8535 16.6152 97.8535C15.7949 97.8535 15.0039 97.873 14.2422 97.9121C13.5 97.9316 12.3574 97.9609 10.8145 98ZM21.9766 84.2598H37.0059L29.6523 67.1211L21.9766 84.2598ZM53.4707 98V97.0918C54.9746 97.0527 55.9902 96.7988 56.5176 96.3301C57.0645 95.8613 57.3379 94.9531 57.3379 93.6055V78.2246C57.3379 76.7793 57.0449 75.7441 56.459 75.1191C55.873 74.4746 54.877 74.0938 53.4707 73.9766V73.0684C54.1543 73.1465 54.7598 73.1953 55.2871 73.2148C55.834 73.2148 56.3613 73.2148 56.8691 73.2148C57.6113 73.2148 58.4023 73.166 59.2422 73.0684C60.082 72.9707 60.9023 72.7949 61.7031 72.541V75.793C62.3086 74.6406 63.207 73.791 64.3984 73.2441C65.6094 72.6777 66.791 72.3945 67.9434 72.3945C69.1543 72.3945 70.1211 72.8242 70.8438 73.6836C71.5664 74.5234 71.9277 75.6172 71.9277 76.9648C71.9277 78.1562 71.7227 79.1426 71.3125 79.9238C70.9023 80.6855 70.3555 81.0664 69.6719 81.0664C69.0273 81.0664 68.5 80.8809 68.0898 80.5098C67.6992 80.1191 67.5039 79.5918 67.5039 78.9277C67.5039 78.0098 67.6406 77.2676 67.9141 76.7012C68.1875 76.1348 68.3242 75.5098 68.3242 74.8262C68.3242 74.2207 67.8457 73.918 66.8887 73.918C65.9121 73.918 64.877 74.2109 63.7832 74.7969C62.709 75.3828 62.0156 76.4766 61.7031 78.0781V93.2539C61.7031 94.6406 62.0742 95.6172 62.8164 96.1836C63.5781 96.75 64.877 97.0527 66.7129 97.0918V98C65.9902 97.9609 64.9551 97.9219 63.6074 97.8828C62.2793 97.8242 60.9512 97.7949 59.623 97.7949C58.373 97.7949 57.1816 97.8242 56.0488 97.8828C54.916 97.9219 54.0566 97.9609 53.4707 98ZM82.8848 98.6738C80.8926 98.6738 79.4668 98.0879 78.6074 96.916C77.748 95.7441 77.3184 93.8301 77.3184 91.1738V74.0352H73.3047V73.127H77.3184V65.7441C78.0801 65.7637 78.832 65.7051 79.5742 65.5684C80.3164 65.4121 81.0195 65.2363 81.6836 65.041V73.127H87.5137V74.0352H81.6836V94.3672C81.6836 95.3242 81.8594 96.0371 82.2109 96.5059C82.582 96.9551 83.207 97.1797 84.0859 97.1797C84.9453 97.1797 85.707 96.6719 86.3711 95.6562C87.0352 94.6406 87.4941 93.3711 87.748 91.8477L88.4219 92.0527C87.6797 96.4668 85.834 98.6738 82.8848 98.6738ZM125.307 98.6738C121.596 98.6738 118.354 97.9707 115.58 96.5645C112.826 95.1387 110.688 93.1367 109.164 90.5586C107.641 87.9609 106.879 84.9141 106.879 81.418C106.879 77.7656 107.67 74.5723 109.252 71.8379C110.834 69.084 113.031 66.9355 115.844 65.3926C118.676 63.8496 121.928 63.0781 125.6 63.0781C127.65 63.0781 129.516 63.3125 131.195 63.7812C132.875 64.25 134.32 64.7285 135.531 65.2168C136.762 65.6855 137.699 65.9199 138.344 65.9199C139.008 65.9199 139.506 65.7148 139.838 65.3047C140.17 64.875 140.453 64.1719 140.688 63.1953H141.596C141.557 64.0156 141.518 64.9336 141.479 65.9492C141.439 66.9453 141.41 68.2051 141.391 69.7285C141.391 71.2324 141.391 73.1855 141.391 75.5879H140.453C139.555 71.6816 137.807 68.7617 135.209 66.8281C132.631 64.875 129.457 63.8984 125.688 63.8984C121.293 63.8984 117.865 65.3828 115.404 68.3516C112.943 71.3203 111.713 75.4609 111.713 80.7734C111.713 86.125 112.963 90.3145 115.463 93.3418C117.963 96.3496 121.43 97.8535 125.863 97.8535C129.359 97.8535 132.074 97.1016 134.008 95.5977C135.961 94.0938 136.938 92.1699 136.938 89.8262V88.127C136.938 86.8965 136.781 85.959 136.469 85.3145C136.176 84.6699 135.609 84.2305 134.77 83.9961C133.93 83.7422 132.699 83.6055 131.078 83.5859V82.6777C131.605 82.6973 132.514 82.7266 133.803 82.7656C135.092 82.8047 136.664 82.8242 138.52 82.8242C139.984 82.8242 141.283 82.8145 142.416 82.7949C143.549 82.7559 144.516 82.7168 145.316 82.6777V83.5859C144.164 83.6445 143.314 83.7715 142.768 83.9668C142.221 84.1621 141.869 84.543 141.713 85.1094C141.557 85.6758 141.479 86.5547 141.479 87.7461V98.498H140.57C140.102 96.8965 139.311 96.0957 138.197 96.0957C137.436 96.0957 136.488 96.3105 135.355 96.7402C134.242 97.1699 132.865 97.5996 131.225 98.0293C129.604 98.459 127.631 98.6738 125.307 98.6738ZM158.119 98.6738C156.166 98.6738 154.604 98.1074 153.432 96.9746C152.279 95.8418 151.703 94.1816 151.703 91.9941C151.703 90.4316 151.996 89.1914 152.582 88.2734C153.188 87.3555 153.969 86.6523 154.926 86.1641C155.883 85.6562 156.908 85.2656 158.002 84.9922C159.096 84.6992 160.15 84.4258 161.166 84.1719C162.182 83.8984 163.031 83.5371 163.715 83.0879C164.418 82.6191 164.848 81.9551 165.004 81.0957C164.867 78.7324 164.447 76.8965 163.744 75.5879C163.061 74.2793 162.074 73.625 160.785 73.625C159.535 73.625 158.441 73.8203 157.504 74.2109C156.586 74.582 156.127 75.0898 156.127 75.7344C156.127 76.3398 156.342 77.0039 156.771 77.7266C157.201 78.4492 157.416 79.1328 157.416 79.7773C157.416 80.3828 157.211 80.8613 156.801 81.2129C156.41 81.5645 155.883 81.7402 155.219 81.7402C154.457 81.7402 153.842 81.4766 153.373 80.9492C152.904 80.4219 152.67 79.709 152.67 78.8105C152.67 77.6582 153.08 76.5938 153.9 75.6172C154.721 74.6406 155.834 73.8594 157.24 73.2734C158.646 72.6875 160.209 72.3945 161.928 72.3945C164.662 72.3945 166.586 73.3418 167.699 75.2363C168.832 77.1309 169.398 79.8164 169.398 83.293V94.9824C169.398 96.5059 169.867 97.2676 170.805 97.2676C171.332 97.2676 171.84 97.1992 172.328 97.0625C172.816 96.9062 173.227 96.4668 173.559 95.7441L174.057 96.5352C173.334 97.4141 172.621 97.9902 171.918 98.2637C171.234 98.5371 170.346 98.6738 169.252 98.6738C166.479 98.6738 165.092 97.1992 165.092 94.25C164.252 95.6172 163.256 96.7012 162.104 97.502C160.951 98.2832 159.623 98.6738 158.119 98.6738ZM160.111 96.5938C161.049 96.5938 161.947 96.3496 162.807 95.8613C163.686 95.373 164.438 94.4941 165.062 93.2246V82.9707C165.062 82.6582 165.062 82.3457 165.062 82.0332C164.848 83.0488 164.408 83.7617 163.744 84.1719C163.1 84.582 162.357 84.8945 161.518 85.1094C160.678 85.3242 159.848 85.6074 159.027 85.959C158.227 86.3105 157.562 86.916 157.035 87.7754C156.508 88.6348 156.244 89.9434 156.244 91.7012C156.244 93.3027 156.586 94.5234 157.27 95.3633C157.973 96.1836 158.92 96.5938 160.111 96.5938ZM175.346 98V97.0918C176.869 97.0527 177.934 96.7988 178.539 96.3301C179.145 95.8613 179.447 94.9531 179.447 93.6055V65.7441C179.447 64.5332 179.135 63.5664 178.51 62.8438C177.904 62.1016 176.85 61.6523 175.346 61.4961V60.5879C175.971 60.6465 176.557 60.6855 177.104 60.7051C177.65 60.7246 178.197 60.7344 178.744 60.7344C179.701 60.7344 180.6 60.6855 181.439 60.5879C182.299 60.4707 183.09 60.2949 183.812 60.0605V93.6055C183.812 94.9531 184.115 95.8613 184.721 96.3301C185.326 96.7988 186.391 97.0527 187.914 97.0918V98C187.309 97.9609 186.41 97.9219 185.219 97.8828C184.027 97.8242 182.836 97.7949 181.645 97.7949C180.453 97.7949 179.262 97.8242 178.07 97.8828C176.879 97.9219 175.971 97.9609 175.346 98ZM189.877 98V97.0918C191.4 97.0527 192.465 96.7988 193.07 96.3301C193.676 95.8613 193.979 94.9531 193.979 93.6055V65.7441C193.979 64.5332 193.666 63.5664 193.041 62.8438C192.436 62.1016 191.381 61.6523 189.877 61.4961V60.5879C190.502 60.6465 191.088 60.6855 191.635 60.7051C192.182 60.7246 192.729 60.7344 193.275 60.7344C194.232 60.7344 195.131 60.6855 195.971 60.5879C196.83 60.4707 197.621 60.2949 198.344 60.0605V93.6055C198.344 94.9531 198.646 95.8613 199.252 96.3301C199.857 96.7988 200.922 97.0527 202.445 97.0918V98C201.84 97.9609 200.941 97.9219 199.75 97.8828C198.559 97.8242 197.367 97.7949 196.176 97.7949C194.984 97.7949 193.793 97.8242 192.602 97.8828C191.41 97.9219 190.502 97.9609 189.877 98ZM217.533 98.6738C215.287 98.6738 213.324 98.1367 211.645 97.0625C209.965 95.9883 208.656 94.4941 207.719 92.5801C206.781 90.666 206.312 88.4688 206.312 85.9883C206.312 81.9062 207.338 78.625 209.389 76.1445C211.459 73.6445 214.301 72.3945 217.914 72.3945C219.906 72.3945 221.635 72.9219 223.1 73.9766C224.584 75.0312 225.727 76.3984 226.527 78.0781C227.328 79.7578 227.709 81.5254 227.67 83.3809H211.029C211.01 83.5957 211 83.8984 211 84.2891C211 88.6445 211.693 91.8672 213.08 93.957C214.486 96.0469 216.469 97.0918 219.027 97.0918C220.668 97.0918 222.182 96.7012 223.568 95.9199C224.955 95.1387 226.049 93.8594 226.85 92.082L227.641 93.0488C226.879 94.9238 225.6 96.3301 223.803 97.2676C222.025 98.2051 219.936 98.6738 217.533 98.6738ZM217.621 73.332C216.566 73.332 215.57 73.7812 214.633 74.6797C213.715 75.5586 212.934 76.7012 212.289 78.1074C211.664 79.4941 211.264 80.9297 211.088 82.4141H223.041C223.1 79.0547 222.68 76.7012 221.781 75.3535C220.902 74.0059 219.516 73.332 217.621 73.332ZM231.771 98V97.0918C233.275 97.0527 234.291 96.7988 234.818 96.3301C235.365 95.8613 235.639 94.9531 235.639 93.6055V78.2246C235.639 76.7793 235.346 75.7441 234.76 75.1191C234.174 74.4746 233.178 74.0938 231.771 73.9766V73.0684C232.455 73.1465 233.061 73.1953 233.588 73.2148C234.135 73.2148 234.662 73.2148 235.17 73.2148C235.912 73.2148 236.703 73.166 237.543 73.0684C238.383 72.9707 239.203 72.7949 240.004 72.541V75.793C240.609 74.6406 241.508 73.791 242.699 73.2441C243.91 72.6777 245.092 72.3945 246.244 72.3945C247.455 72.3945 248.422 72.8242 249.145 73.6836C249.867 74.5234 250.229 75.6172 250.229 76.9648C250.229 78.1562 250.023 79.1426 249.613 79.9238C249.203 80.6855 248.656 81.0664 247.973 81.0664C247.328 81.0664 246.801 80.8809 246.391 80.5098C246 80.1191 245.805 79.5918 245.805 78.9277C245.805 78.0098 245.941 77.2676 246.215 76.7012C246.488 76.1348 246.625 75.5098 246.625 74.8262C246.625 74.2207 246.146 73.918 245.189 73.918C244.213 73.918 243.178 74.2109 242.084 74.7969C241.01 75.3828 240.316 76.4766 240.004 78.0781V93.2539C240.004 94.6406 240.375 95.6172 241.117 96.1836C241.879 96.75 243.178 97.0527 245.014 97.0918V98C244.291 97.9609 243.256 97.9219 241.908 97.8828C240.58 97.8242 239.252 97.7949 237.924 97.7949C236.674 97.7949 235.482 97.8242 234.35 97.8828C233.217 97.9219 232.357 97.9609 231.771 98ZM257.553 109.865C256.322 109.865 255.336 109.455 254.594 108.635C253.871 107.834 253.51 106.75 253.51 105.383C253.51 104.309 253.744 103.449 254.213 102.805C254.701 102.16 255.336 101.838 256.117 101.838C256.684 101.838 257.123 102.014 257.436 102.365C257.748 102.736 257.904 103.195 257.904 103.742C257.904 104.562 257.816 105.275 257.641 105.881C257.465 106.506 257.377 107.15 257.377 107.814C257.377 108.479 257.67 108.811 258.256 108.811C258.959 108.811 259.574 108.42 260.102 107.639C260.629 106.877 261.166 105.705 261.713 104.123L263.676 98.6152H262.797L254.975 77.4922C254.545 76.3398 254.076 75.4805 253.568 74.9141C253.08 74.3477 252.416 74.0547 251.576 74.0352V73.0977C252.572 73.1562 253.432 73.1855 254.154 73.1855C254.896 73.1855 255.775 73.1855 256.791 73.1855C258.236 73.1855 259.389 73.1855 260.248 73.1855C261.127 73.1855 262.016 73.1562 262.914 73.0977V74.0352C261.176 73.9961 260.082 74.2695 259.633 74.8555C259.203 75.4414 259.291 76.584 259.896 78.2832L265.346 93.7812L270.268 79.6602C270.697 78.4492 271.039 77.4434 271.293 76.6426C271.547 75.8223 271.41 75.1973 270.883 74.7676C270.375 74.3379 269.164 74.0938 267.25 74.0352V73.0977C268.227 73.1562 268.988 73.1953 269.535 73.2148C270.082 73.2148 270.834 73.2148 271.791 73.2148C272.416 73.2148 273.129 73.2148 273.93 73.2148C274.75 73.2148 275.404 73.1758 275.893 73.0977V74.0352C274.564 74.4062 273.5 75.3242 272.699 76.7891C271.918 78.2344 271.039 80.3438 270.062 83.1172L264.73 98.1172L262.475 104.943C261.928 106.564 261.264 107.785 260.482 108.605C259.721 109.445 258.744 109.865 257.553 109.865Z" fill="url(#paint0_linear_25_25)"/>
<defs>
<linearGradient id="paint0_linear_25_25" x1="2" y1="-5.99999" x2="280.5" y2="105" gradientUnits="userSpaceOnUse">
<stop stop-color="#EED075"/>
<stop offset="1" stop-color="#A49A7C"/>
</linearGradient>
</defs>
</svg>
